<svg xmlns="http://www.w3.org/2000/svg" xmlns:xlink="http://www.w3.org/1999/xlink" width="39.885" height="39.885" viewBox="0 0 39.885 39.885"><defs><style>.a{fill:none;}.b{clip-path:url(#a);}.c{fill:#00a088;}.d{clip-path:url(#b);}.e{clip-path:url(#c);}.f{fill:#fff;}</style><clipPath id="a"><path class="a" d="M.794-20.186h0A19.942,19.942,0,0,0,20.736-.244,19.942,19.942,0,0,0,40.678-20.186h0A19.942,19.942,0,0,0,20.736-40.129,19.942,19.942,0,0,0,.794-20.186Z"/></clipPath><clipPath id="b"><path class="a" d="M18.848-22.074v-7.39a1.881,1.881,0,0,1,3.517,0v7.422h7.341a1.867,1.867,0,0,1,0,3.6H22.462V-11.2c-1,1.839-2.9,1.759-3.695,0v-7.244H11.426a1.855,1.855,0,0,1,0-3.6l7.422-.048Z"/></clipPath><clipPath id="c"><path class="a" d="M-224,502H190V-234H-224Z"/></clipPath></defs><g transform="translate(-0.794 40.129)"><g class="b"><path class="c" d="M-4.206-45.129H45.678V4.756H-4.206Z"/></g><g class="d"><g class="e"><path class="f" d="M5.022-35.675H36.074V-4.85H5.022Z"/></g></g></g></svg>