<svg xmlns="http://www.w3.org/2000/svg" xmlns:xlink="http://www.w3.org/1999/xlink" width="36" height="36" viewBox="0 0 36 36"><defs><style>.a,.b{fill:none;}.b{stroke:#707070;stroke-linecap:round;stroke-width:1.5px;}.c{clip-path:url(#a);}.d{fill:#666;}.e{clip-path:url(#b);}</style><clipPath id="a"><path class="a" d="M20.625-37.875v2.75H1.375v-2.75ZM22-39.25H0v5.5H22ZM1.375-33.75H2.75V-20H1.375Zm17.875,0h1.375V-20H19.25Z" transform="translate(0 39.25)"/></clipPath><clipPath id="b"><path class="a" d="M2.75-3.5H20.625v1.375H2.75Z" transform="translate(-2.75 3.5)"/></clipPath></defs><rect class="a" width="36" height="36"/><g transform="translate(192.787 -241.205) rotate(45)"><line class="b" y2="8" transform="translate(60 303.5)"/><line class="b" y2="8" transform="translate(64 307.5) rotate(90)"/></g><g transform="translate(7 47.25)"><g class="c" transform="translate(0 -39.25)"><path class="d" d="M-5-44.25H22V-20H-5Z" transform="translate(2.5 41.75)"/></g><g class="e" transform="translate(1.375 -21.375)"><path class="d" d="M-2.25-8.5H20.625v6.375H-2.25Z" transform="translate(-0.25 6)"/></g></g></svg>