<svg xmlns="http://www.w3.org/2000/svg" xmlns:xlink="http://www.w3.org/1999/xlink" width="94" height="94" viewBox="0 0 94 94"><defs><style>.a{fill:#fff;}.b{fill:#00a088;}.c{clip-path:url(#c);}.d{clip-path:url(#d);}.e{filter:url(#a);}</style><filter id="a" x="0" y="0" width="94" height="94" filterUnits="userSpaceOnUse"><feOffset dy="3" input="SourceAlpha"/><feGaussianBlur stdDeviation="3" result="b"/><feFlood flood-opacity="0.161"/><feComposite operator="in" in2="b"/><feComposite in="SourceGraphic"/></filter><clipPath id="c"><path class="a" d="M33.924-17.048h0a2.389,2.389,0,0,0-1.971-1.87h0a.478.478,0,0,1-.349-.222h0a.469.469,0,0,1-.019-.409h0a2.392,2.392,0,0,0-.639-2.619h0a9.452,9.452,0,0,0-3.444-1.98h0a2.387,2.387,0,0,0-2.583.753h0a.476.476,0,0,1-.364.184h0a.471.471,0,0,1-.364-.184h0a2.392,2.392,0,0,0-2.585-.753h0a9.435,9.435,0,0,0-3.451,1.983h0a2.394,2.394,0,0,0-.639,2.616h0a.471.471,0,0,1-.019.407h0a.476.476,0,0,1-.349.222h0a2.392,2.392,0,0,0-1.966,1.87h0a9.454,9.454,0,0,0,0,3.953h0a2.392,2.392,0,0,0,1.971,1.87h0A.471.471,0,0,1,17.5-11h0a.462.462,0,0,1,.022.409,2.4,2.4,0,0,0,.639,2.621A9.463,9.463,0,0,0,21.6-5.994h0a2.392,2.392,0,0,0,2.588-.753h0a.466.466,0,0,1,.364-.187.47.47,0,0,1,.364.187h0a2.392,2.392,0,0,0,2.583.753h0a9.516,9.516,0,0,0,3.439-1.976,2.4,2.4,0,0,0,.639-2.624h0A.469.469,0,0,1,31.6-11h0a.476.476,0,0,1,.349-.222h0A2.392,2.392,0,0,0,33.926-13.1a9.744,9.744,0,0,0,.208-1.976,9.6,9.6,0,0,0-.21-1.976ZM31.582-13.59h0A2.846,2.846,0,0,0,29.525-12.2h0a2.863,2.863,0,0,0-.187,2.451h0A7.079,7.079,0,0,1,26.76-8.268h0a2.858,2.858,0,0,0-2.208-1.055,2.852,2.852,0,0,0-2.208,1.055h0a7.165,7.165,0,0,1-2.583-1.483h0a2.853,2.853,0,0,0-.187-2.447h0a2.851,2.851,0,0,0-2.05-1.39h0a7.22,7.22,0,0,1-.158-1.483,7.244,7.244,0,0,1,.158-1.485,2.864,2.864,0,0,0,2.045-1.39,2.843,2.843,0,0,0,.189-2.442,7.2,7.2,0,0,1,2.588-1.488,2.848,2.848,0,0,0,2.208,1.055,2.855,2.855,0,0,0,2.208-1.055,7.166,7.166,0,0,1,2.583,1.483h0a2.87,2.87,0,0,0,.187,2.447,2.859,2.859,0,0,0,2.052,1.39,7.244,7.244,0,0,1,.158,1.485h0a7.2,7.2,0,0,1-.16,1.48Zm-7.034-5.07a3.592,3.592,0,0,0-3.588,3.588,3.592,3.592,0,0,0,3.588,3.588,3.594,3.594,0,0,0,3.59-3.588h0a3.6,3.6,0,0,0-3.59-3.588Zm0,4.783h0a1.2,1.2,0,0,1-1.2-1.2,1.2,1.2,0,0,1,1.2-1.2h0a1.2,1.2,0,0,1,1.2,1.2,1.2,1.2,0,0,1-1.2,1.2Zm.136-17.089a1.2,1.2,0,0,0-1.2-1.2H6.747a1.2,1.2,0,0,0-1.2,1.2,1.2,1.2,0,0,0,1.2,1.2H23.486a1.2,1.2,0,0,0,1.2-1.2ZM15.118-23.79a1.2,1.2,0,0,0-1.2-1.2H6.747a1.2,1.2,0,0,0-1.2,1.2,1.2,1.2,0,0,0,1.2,1.2h7.175a1.2,1.2,0,0,0,1.2-1.2ZM6.747-17.811h0a1.2,1.2,0,0,0-1.2,1.2,1.2,1.2,0,0,0,1.2,1.2h4.781a1.2,1.2,0,0,0,1.2-1.2,1.2,1.2,0,0,0-1.2-1.2Zm7.2,7.23H4.212a1.124,1.124,0,0,1-1.026-1.2V-35.717a1.124,1.124,0,0,1,1.026-1.2H26.076a1.124,1.124,0,0,1,1.026,1.2v9.567h0l0,.024h0a1.2,1.2,0,0,0,1.2,1.2,1.2,1.2,0,0,0,1.2-1.2l0-.024h0V-36.913A2.264,2.264,0,0,0,27.4-39.3H2.887A2.264,2.264,0,0,0,.794-36.913v26.332A2.264,2.264,0,0,0,2.887-8.189H13.948a1.2,1.2,0,0,0,1.2-1.2,1.2,1.2,0,0,0-1.2-1.2Z" transform="translate(-0.794 39.305)"/></clipPath><clipPath id="d"><path class="a" d="M-123,215.1H237.056V-425H-123Z" transform="translate(123 425)"/></clipPath></defs><g transform="translate(9 6)"><g class="e" transform="matrix(1, 0, 0, 1, -9, -6)"><circle class="b" cx="38" cy="38" r="38" transform="translate(9 6)"/></g><g transform="translate(20.206 60.305)"><g class="c" transform="translate(0.794 -39.305)"><g class="d" transform="translate(-107.664 -335.439)"><path class="a" d="M-4.206-44.305H37.831V-2.179H-4.206Z" transform="translate(107.521 375.396)"/></g></g></g></g></svg>