<svg xmlns="http://www.w3.org/2000/svg" xmlns:xlink="http://www.w3.org/1999/xlink" width="44.027" height="44" viewBox="0 0 44.027 44"><defs><style>.a{fill:#fc0;}.b{fill:#fff;}.c{clip-path:url(#a);}.d{clip-path:url(#b);}</style><clipPath id="a"><path class="a" d="M22.028,0h0A22,22,0,0,1,0-21.974,22,22,0,0,1,15.566-43.037h0A22.606,22.606,0,0,1,22.056-44h0A22,22,0,0,1,42.323-30.552h0A21.313,21.313,0,0,1,44.028-22h0a22,22,0,0,1-19.8,22h-2.2Zm0-39.9h0A17.9,17.9,0,0,0,4.085-22.041,17.9,17.9,0,0,0,21.946-4.1,17.9,17.9,0,0,0,38.528-15.152h0a17.628,17.628,0,0,0,1.4-6.93h0A17.875,17.875,0,0,0,23.788-39.9c-.577.028-1.155,0-1.76,0ZM16.748-10.7h0a2.035,2.035,0,0,1-2.035-2.035,2.035,2.035,0,0,1,2.035-2.035h6.627a4.593,4.593,0,0,0,4.593-4.593,4.593,4.593,0,0,0-4.593-4.593H19.031l1.815,1.815h0a2.035,2.035,0,0,1,.577,1.458h0a1.98,1.98,0,0,1-.577,1.43h0a2.118,2.118,0,0,1-1.458.6h0a2.062,2.062,0,0,1-1.458-.6l-5.28-5.308-.193-.192-.193-.275V-26.95l.193-.3.193-.193,5.28-5.308h0a2.2,2.2,0,0,1,1.43-.577h0a2.062,2.062,0,0,1,1.458.6h0a2.035,2.035,0,0,1,0,2.75L19-28.16h4.345A8.69,8.69,0,0,1,31.536-19a8.69,8.69,0,0,1-8.188,8.188Z" transform="translate(-0.002 44)"/></clipPath><clipPath id="b"><path class="b" d="M8.576-17.975h0a12.91,12.91,0,0,1-4.138-2.838h0a13.162,13.162,0,0,1-2.776-4.206A13.237,13.237,0,0,1,.64-30.176a13.546,13.546,0,0,1,1.021-5.157h0A13.292,13.292,0,0,1,4.438-39.54h0a12.915,12.915,0,0,1,4.14-2.839h0a12.879,12.879,0,0,1,5.062-1.039A12.709,12.709,0,0,1,18.7-42.378h0a12.91,12.91,0,0,1,4.138,2.839h0a13.164,13.164,0,0,1,2.776,4.206,13.254,13.254,0,0,1,1.021,5.158,13.545,13.545,0,0,1-1.022,5.16h0q-.226.535-.494,1.052l-.5.96-1.8-3.3.092-.247h0a10.294,10.294,0,0,0,.648-3.613,10.125,10.125,0,0,0-2.908-7.158h0a9.735,9.735,0,0,0-7.017-2.958,9.778,9.778,0,0,0-7.018,2.96,10.12,10.12,0,0,0-2.907,7.156A10.121,10.121,0,0,0,6.622-23a9.78,9.78,0,0,0,6.616,2.95l.93.038-.446.816-.894,1.635c-.036.064-.071.134-.1.2l-.171.392-.425-.05h0a12.633,12.633,0,0,1-3.556-.953Zm9-8.671a1.587,1.587,0,0,1-.208,2.186,1.53,1.53,0,0,1-.98.351,1.483,1.483,0,0,1-1.186-.57L12.12-28.507V-37.13a1.547,1.547,0,0,1,1.537-1.552,1.548,1.548,0,0,1,1.537,1.552v7.51l2.385,2.974Zm2.643,9.056a.623.623,0,0,0-.611.68.627.627,0,0,0,.611.69.627.627,0,0,0,.61-.69A.623.623,0,0,0,20.223-17.59Zm-.01-4.549H20.2c-.525,0-.656.167-.656.38a6.231,6.231,0,0,0,.076.643c.153.928.284,1.881.4,2.88.024.121.351.106.373,0,.122-1,.241-1.951.394-2.88a4.188,4.188,0,0,0,.068-.643c0-.213-.153-.38-.645-.38Zm-3.751,7.477A1.619,1.619,0,0,1,15-15.477a1.742,1.742,0,0,1,.049-1.691l3.659-6.689a1.63,1.63,0,0,1,1.417-.919,1.624,1.624,0,0,1,1.416.919L25.2-17.17a1.745,1.745,0,0,1,.046,1.693,1.607,1.607,0,0,1-1.454.814H16.462Z" transform="translate(-0.64 43.417)"/></clipPath></defs><g transform="translate(-1205 -266)"><g transform="translate(1205 266)"><circle class="a" cx="22" cy="22" r="22"/><g transform="translate(0 0)"><g class="c"><path class="a" d="M-5-49H49.029V5H-5Z" transform="translate(-5.002 44)"/></g></g></g><g transform="translate(1214 274)"><g class="d"><path class="b" d="M-4.36-48.417h32.7v35.459H-4.36Z" transform="translate(1.008 45.066)"/></g></g></g></svg>