<?xml version="1.0" standalone="no"?><!DOCTYPE svg PUBLIC "-//W3C//DTD SVG 1.1//EN" "http://www.w3.org/Graphics/SVG/1.1/DTD/svg11.dtd"><svg t="1570760414985" class="icon" viewBox="0 0 1024 1024" version="1.1" xmlns="http://www.w3.org/2000/svg" p-id="2251" xmlns:xlink="http://www.w3.org/1999/xlink" width="200" height="200"><defs><style type="text/css"></style></defs><path d="M512 1024C229.2224 1024 0 794.7776 0 512S229.2224 0 512 0s512 229.2224 512 512-229.2224 512-512 512z m0-51.2c254.4896 0 460.8-206.3104 460.8-460.8S766.4896 51.2 512 51.2 51.2 257.5104 51.2 512s206.3104 460.8 460.8 460.8z m36.1984-460.8l162.9184 162.9184a25.6 25.6 0 0 1-36.1984 36.1984L512 548.1984l-162.9184 162.9184a25.6 25.6 0 0 1-36.1984-36.1984L475.8016 512l-162.9184-162.9184a25.6 25.6 0 0 1 36.1984-36.1984L512 475.8016l162.9184-162.9184a25.6 25.6 0 0 1 36.1984 36.1984L548.1984 512z" p-id="2252" fill="#00A088"></path></svg>