<svg xmlns="http://www.w3.org/2000/svg" xmlns:xlink="http://www.w3.org/1999/xlink" width="24" height="24" viewBox="0 0 24 24"><defs><style>.a{fill:#00a088;}.b{clip-path:url(#a);}</style><clipPath id="a"><path class="a" d="M8.536-36.5a.352.352,0,0,0-.39.39v5.07a.352.352,0,0,0,.39.39.352.352,0,0,0,.39-.39v-5.07a.352.352,0,0,0-.39-.39Zm3.84-7.23c-8.28,0-12,3.72-12,12s3.72,12,12,12,12-3.72,12-12S20.656-43.732,12.376-43.732Zm7.44,13.68a1.294,1.294,0,0,1-.36.9,3.884,3.884,0,0,1-3.06,1.2c-1.8-.03-3.3-1.17-5.37-1.17a5.483,5.483,0,0,0-2.88.78v3.33a.815.815,0,0,1-.78.78.815.815,0,0,1-.78-.78v-13.44a.815.815,0,0,1,.78-.78.815.815,0,0,1,.78.78v.78a4.564,4.564,0,0,1,2.88-.78c2.07,0,3.12,1.56,4.74,1.56,1.74,0,2.34-.51,2.58-.78a1.306,1.306,0,0,1,.75-.39c.36,0,.75.12.75.51v7.5Z" transform="translate(-0.376 43.732)"/></clipPath></defs><g transform="translate(-0.375 43.732)"><g class="b" transform="translate(0.376 -43.732)"><path class="a" d="M-4.624-48.732H24.967v29.591H-4.624Z" transform="translate(1.829 45.936)"/></g></g></svg>