<svg xmlns="http://www.w3.org/2000/svg" xmlns:xlink="http://www.w3.org/1999/xlink" width="94" height="94" viewBox="0 0 94 94"><defs><style>.a{fill:#fff;}.b{fill:#00a088;}.c{clip-path:url(#c);}.d{clip-path:url(#d);}.e{filter:url(#a);}</style><filter id="a" x="0" y="0" width="94" height="94" filterUnits="userSpaceOnUse"><feOffset dy="3" input="SourceAlpha"/><feGaussianBlur stdDeviation="3" result="b"/><feFlood flood-opacity="0.161"/><feComposite operator="in" in2="b"/><feComposite in="SourceGraphic"/></filter><clipPath id="c"><path class="a" d="M17.191-40.117v10.735a1.013,1.013,0,0,1-.509.878h0a1.03,1.03,0,0,1-1.024,0h0a1.012,1.012,0,0,1-.512-.878V-40.117l-2.591,2.571h0a1.027,1.027,0,0,1-1.452.016,1.027,1.027,0,0,1-.273-.464h0a1.009,1.009,0,0,1,.279-.986L16.17-44l5.061,5.02h0a1.009,1.009,0,0,1,.035,1.427,1.009,1.009,0,0,1-.486.283h0a1.027,1.027,0,0,1-.995-.276l-2.594-2.571Zm7.28,2.623h0a1.018,1.018,0,0,1-1.021-1.015v0h0a1.018,1.018,0,0,1,1.021-1.012h3.967A2.989,2.989,0,0,1,31.5-36.615v24.609A2.986,2.986,0,0,1,28.438-9.1H3.9A2.985,2.985,0,0,1,.833-12.007V-36.612A2.989,2.989,0,0,1,3.9-39.521H8.009a1.019,1.019,0,0,1,.884.509h0a1.006,1.006,0,0,1,0,1.012h0a1.024,1.024,0,0,1-.884.509H3.9a.958.958,0,0,0-1.024.878v24.606a.962.962,0,0,0,1.024.878H28.435a.958.958,0,0,0,1.021-.878V-36.615a.956.956,0,0,0-1.021-.878H24.471ZM9.012-24.31H23.325A1.018,1.018,0,0,1,24.348-23.3h0a1.018,1.018,0,0,1-1.021,1.015H9.015a1.018,1.018,0,0,1-1.024-1.012v0h0A1.018,1.018,0,0,1,9.012-24.31Zm0,6.085H23.325a1.018,1.018,0,0,1,1.024,1.012h0a1.018,1.018,0,0,1-1.018,1.018H9.015a1.018,1.018,0,0,1-1.024-1.012s0,0,0-.006h0a1.018,1.018,0,0,1,1.021-1.012Z" transform="translate(-0.833 44)"/></clipPath><clipPath id="d"><path class="a" d="M-128,212.812H200.394V-371H-128Z" transform="translate(128 371)"/></clipPath></defs><g transform="translate(9 6)"><g class="e" transform="matrix(1, 0, 0, 1, -9, -6)"><circle class="b" cx="38" cy="38" r="38" transform="translate(9 6)"/></g><g transform="translate(22.167 65)"><g class="c" transform="translate(0.833 -44)"><g class="d" transform="translate(-102.194 -259.384)"><path class="a" d="M-4.167-49h38.6V-6.169h-38.6Z" transform="translate(102.394 304.418)"/></g></g></g></g></svg>