<svg xmlns="http://www.w3.org/2000/svg" xmlns:xlink="http://www.w3.org/1999/xlink" width="44.027" height="44" viewBox="0 0 44.027 44"><defs><style>.a{fill:#fc0;}.b{fill:#fff;}.c{clip-path:url(#a);}.d{clip-path:url(#b);}.e{clip-path:url(#c);}.f{clip-path:url(#d);}</style><clipPath id="a"><path class="a" d="M22.028,0h0A22,22,0,0,1,0-21.974,22,22,0,0,1,15.566-43.037h0A22.606,22.606,0,0,1,22.056-44h0A22,22,0,0,1,42.323-30.552h0A21.313,21.313,0,0,1,44.028-22h0a22,22,0,0,1-19.8,22h-2.2Zm0-39.9h0A17.9,17.9,0,0,0,4.085-22.041,17.9,17.9,0,0,0,21.946-4.1,17.9,17.9,0,0,0,38.528-15.152h0a17.628,17.628,0,0,0,1.4-6.93h0A17.875,17.875,0,0,0,23.788-39.9c-.577.028-1.155,0-1.76,0ZM16.748-10.7h0a2.035,2.035,0,0,1-2.035-2.035,2.035,2.035,0,0,1,2.035-2.035h6.627a4.593,4.593,0,0,0,4.593-4.593,4.593,4.593,0,0,0-4.593-4.593H19.031l1.815,1.815h0a2.035,2.035,0,0,1,.577,1.458h0a1.98,1.98,0,0,1-.577,1.43h0a2.118,2.118,0,0,1-1.458.6h0a2.062,2.062,0,0,1-1.458-.6l-5.28-5.308-.193-.192-.193-.275V-26.95l.193-.3.193-.193,5.28-5.308h0a2.2,2.2,0,0,1,1.43-.577h0a2.062,2.062,0,0,1,1.458.6h0a2.035,2.035,0,0,1,0,2.75L19-28.16h4.345A8.69,8.69,0,0,1,31.536-19a8.69,8.69,0,0,1-8.188,8.188Z" transform="translate(-0.002 44)"/></clipPath><clipPath id="b"><path class="b" d="M19.135-28.213a11.6,11.6,0,0,0-3.37-2,7.2,7.2,0,0,0,2.949-5.793,7.211,7.211,0,0,0-7.2-7.2,7.211,7.211,0,0,0-7.2,7.2,7.176,7.176,0,0,0,3.015,5.845A11.476,11.476,0,0,0,.046-19.5a1.084,1.084,0,0,0,1.08,1.08,1.084,1.084,0,0,0,1.08-1.08,9.33,9.33,0,0,1,9.321-9.321.448.448,0,0,0,.132-.013c.026,0,.04.013.066.013a9.272,9.272,0,0,1,5.911,2.12l1.5-1.514Zm-7.623-2.752a5.051,5.051,0,0,1-5.042-5.042,5.051,5.051,0,0,1,5.042-5.042,5.051,5.051,0,0,1,5.042,5.042A5.06,5.06,0,0,1,11.513-30.964Z" transform="translate(-0.046 43.208)"/></clipPath><clipPath id="c"><path class="b" d="M28.088-17.365a1.09,1.09,0,0,0,1.093,1.093,1.09,1.09,0,0,0,1.093-1.093,1.09,1.09,0,0,0-1.093-1.093A1.107,1.107,0,0,0,28.088-17.365Zm6.359,3.581a.868.868,0,0,1-.869.869H27.4a.868.868,0,0,1-.869-.869.877.877,0,0,1,.869-.869h6.174a.877.877,0,0,1,.869.869Zm-7.675,2.975a.868.868,0,0,1,.869-.869h6.174a.868.868,0,0,1,.869.869.877.877,0,0,1-.869.869H27.64A.868.868,0,0,1,26.771-10.809Z" transform="translate(-26.534 18.458)"/></clipPath><clipPath id="d"><path class="b" d="M34.346-12.109h0a.874.874,0,0,1-1.236,0h0l-2.027-2.027h0a.874.874,0,0,1,0-1.236h0a.874.874,0,0,1,1.238,0l2.027,2.027a.874.874,0,0,1,0,1.238ZM30.463-7h0a.874.874,0,0,1-1.236,0h0L27.2-9.029h0a.874.874,0,0,1,0-1.236h0a.874.874,0,0,1,1.238,0l2.027,2.027a.874.874,0,0,1,0,1.238Z" transform="translate(-26.941 15.631)"/></clipPath></defs><g transform="translate(-1285 -266)"><g transform="translate(1285 266)"><circle class="a" cx="22" cy="22" r="22"/><g transform="translate(0 0)"><g class="c"><path class="a" d="M-5-49H49.029V5H-5Z" transform="translate(-5.002 44)"/></g></g></g><g transform="translate(1295.954 316.208)"><g class="d" transform="translate(0.046 -43.208)"><path class="b" d="M-4.954-48.208H20.12v30.774H-4.954Z" transform="translate(1.962 45.216)"/></g><g class="e" transform="translate(15.897 -28.397)"><path class="b" d="M21.534-23.458H35.667v14.5H21.534Z" transform="translate(-24.526 20.466)"/></g><g class="f" transform="translate(16.14 -26.706)"><path class="b" d="M21.941-20.631H35.587V-5.76H21.941Z" transform="translate(-24.933 17.639)"/></g></g></g></svg>