<svg xmlns="http://www.w3.org/2000/svg" xmlns:xlink="http://www.w3.org/1999/xlink" width="36" height="36" viewBox="0 0 36 36"><defs><style>.a{fill:#006858;}.b{fill:#fff;}.c{clip-path:url(#a);}.d{clip-path:url(#b);}</style><clipPath id="a"><path class="a" d="M11.219-6.8l9.1-9.1a.94.94,0,0,0,0-1.3.94.94,0,0,0-1.3,0L10.56-8.742,2.139-17.163a.94.94,0,0,0-1.3,0,.94.94,0,0,0,0,1.3L9.9-6.8a.928.928,0,0,0,1.318,0Z" transform="translate(-0.579 17.461)"/></clipPath><clipPath id="b"><path class="a" d="M-112,222.488H199.2V-146H-112Z" transform="translate(112 146)"/></clipPath></defs><rect class="b" width="36" height="36"/><g transform="translate(7.421 30.461)"><g class="c" transform="translate(0.579 -17.461)"><g class="d" transform="translate(-73.293 -83.684)"><path class="a" d="M-4.421-22.461h26.51V-5.017H-4.421Z" transform="translate(74.459 102.89)"/></g></g></g></svg>