<?xml version="1.0" standalone="no"?><!DOCTYPE svg PUBLIC "-//W3C//DTD SVG 1.1//EN" "http://www.w3.org/Graphics/SVG/1.1/DTD/svg11.dtd"><svg t="1570614050212" class="icon" viewBox="0 0 1024 1024" version="1.1" xmlns="http://www.w3.org/2000/svg" p-id="4684" xmlns:xlink="http://www.w3.org/1999/xlink" width="200" height="200"><defs><style type="text/css"></style></defs><path d="M512 1024c-283.574857 0-512-228.425143-512-512s228.425143-512 512-512 512 228.425143 512 512-228.425143 512-512 512z" fill="#BB1629" p-id="4685"></path><path d="M559.396571 598.747429c-3.218286 40.594286-25.526857 59.538286-47.542857 59.538285-16.310857 0 0 0 0 0-20.845714-4.534857-37.083429-14.848-44.251428-55.881143L438.857143 218.916571C438.857143 180.370286 479.378286 146.285714 513.755429 146.285714S585.142857 181.979429 585.142857 220.452571l-25.746286 378.294858zM512 731.428571a73.142857 73.142857 0 1 0 0 146.285715 73.142857 73.142857 0 0 0 0-146.285715" fill="#FFFFFF" p-id="4686"></path></svg>