<svg xmlns="http://www.w3.org/2000/svg" xmlns:xlink="http://www.w3.org/1999/xlink" width="16" height="16" viewBox="0 0 16 16"><defs><style>.a{fill:#d90d48;}.b{clip-path:url(#a);}.c{clip-path:url(#b);}.d{clip-path:url(#c);}</style><clipPath id="a"><path class="a" d="M8.75-39.25a8,8,0,0,0-8,8,8,8,0,0,0,8,8,8,8,0,0,0,8-8A8,8,0,0,0,8.75-39.25Zm0,14.643A6.644,6.644,0,0,1,2.107-31.25,6.644,6.644,0,0,1,8.75-37.893a6.644,6.644,0,0,1,6.643,6.643A6.644,6.644,0,0,1,8.75-24.607Z" transform="translate(-0.75 39.25)"/></clipPath><clipPath id="b"><path class="a" d="M17.938-13.643h0a.857.857,0,0,0,.857.857.857.857,0,0,0,.857-.857h0a.857.857,0,0,0-.857-.857.857.857,0,0,0-.857.857Z" transform="translate(-17.938 14.5)"/></clipPath><clipPath id="c"><path class="a" d="M18.768-24.482h.857a.143.143,0,0,0,.143-.143v-4.857a.143.143,0,0,0-.143-.143h-.857a.143.143,0,0,0-.143.143v4.857A.143.143,0,0,0,18.768-24.482Z" transform="translate(-18.625 29.625)"/></clipPath></defs><g transform="translate(-0.75 39.25)"><g class="b" transform="translate(0.75 -39.25)"><path class="a" d="M-4.25-44.25H15.906v20.156H-4.25Z" transform="translate(2.172 42.172)"/></g><g class="c" transform="translate(7.893 -28.964)"><path class="a" d="M12.938-19.5h5.87v5.87h-5.87Z" transform="translate(-15.015 17.422)"/></g><g class="d" transform="translate(8.179 -35.25)"><path class="a" d="M13.625-34.625h5.3v9.3h-5.3Z" transform="translate(-15.703 32.547)"/></g></g></svg>