<svg xmlns="http://www.w3.org/2000/svg" xmlns:xlink="http://www.w3.org/1999/xlink" width="36" height="36" viewBox="0 0 36 36"><defs><style>.a{fill:#006858;}.b{fill:none;}.c{clip-path:url(#a);}.d{clip-path:url(#b);}.e{clip-path:url(#c);}.f{clip-path:url(#d);}</style><clipPath id="a"><rect class="b" width="36" height="36"/></clipPath><clipPath id="b"><rect class="b" width="26" height="25.998"/></clipPath><clipPath id="c"><path class="a" d="M26.1-14.944l-6.306-6.442a1.108,1.108,0,0,0-.352-.243A10.925,10.925,0,0,0,21.6-28.178,10.7,10.7,0,0,0,11.011-39,10.7,10.7,0,0,0,.424-28.178,10.7,10.7,0,0,0,11.011-17.359a10.42,10.42,0,0,0,7-2.7,1.134,1.134,0,0,0,.2.287l6.3,6.442a1.1,1.1,0,0,0,1.577,0,1.159,1.159,0,0,0,0-1.612ZM11.011-19.067a9.016,9.016,0,0,1-8.917-9.111,9.015,9.015,0,0,1,8.917-9.111,9.015,9.015,0,0,1,8.917,9.111A9.016,9.016,0,0,1,11.011-19.067Z" transform="translate(-0.424 38.997)"/></clipPath><clipPath id="d"><path class="a" d="M-250,197.506H73.035V-185H-250Z" transform="translate(250 185)"/></clipPath></defs><g class="c"><rect class="b" width="36" height="36"/><g class="d" transform="translate(5 5)"><g class="e"><g class="f" transform="translate(-169.238 -98.67)"><path class="a" d="M-4.576-44H28.182v32.756H-4.576Z" transform="translate(170.435 139.288)"/></g></g></g></g></svg>