<?xml version="1.0" standalone="no"?><!DOCTYPE svg PUBLIC "-//W3C//DTD SVG 1.1//EN" "http://www.w3.org/Graphics/SVG/1.1/DTD/svg11.dtd"><svg t="1570523063234" class="icon" viewBox="0 0 1024 1024" version="1.1" xmlns="http://www.w3.org/2000/svg" p-id="2228" xmlns:xlink="http://www.w3.org/1999/xlink" width="200" height="200"><defs><style type="text/css"></style></defs><path d="M957.426 801.351L769.441 672.893c33.75-56.826 53.21-123.095 53.21-193.848 0-209.981-170.831-380.808-380.811-380.808-209.977 0-380.808 170.827-380.808 380.808 0 209.98 170.831 380.814 380.808 380.814 116.251 0 220.437-52.423 290.346-134.8l189.08 129.21a31.86 31.86 0 0 0 18.048 5.59c10.235 0 20.289-4.883 26.494-13.966 9.977-14.614 6.231-34.55-8.382-44.542z m-515.586-5.585c-174.636 0-316.716-142.081-316.716-316.72 0-174.635 142.081-316.721 316.716-316.721 174.64 0 316.724 142.086 316.724 316.72 0 174.64-142.086 316.72-316.724 316.72z m0 0" p-id="2229" fill="#CECECE"></path></svg>