<svg xmlns="http://www.w3.org/2000/svg" xmlns:xlink="http://www.w3.org/1999/xlink" width="24" height="24.005" viewBox="0 0 24 24.005"><defs><style>.a{fill:#00a088;}.b{clip-path:url(#a);}</style><clipPath id="a"><path class="a" d="M14.033-38.837h0a1.925,1.925,0,0,0-2.587,0L.986-28.905h0a.965.965,0,0,0-.058,1.363.965.965,0,0,0,1.35.07l.166-.158v10.366h0a1.93,1.93,0,0,0,1.927,1.932H9.99v-5.81h0A1.359,1.359,0,0,1,11.347-22.5h2.645a1.359,1.359,0,0,1,1.359,1.358s0,0,0,0v5.81H21.1a1.93,1.93,0,0,0,1.93-1.929s0,0,0,0V-27.5a.97.97,0,0,0,1.394-.039h0a.965.965,0,0,0-.069-1.363h0L14.033-38.837Z" transform="translate(-0.674 39.336)"/></clipPath></defs><g transform="translate(-0.674 39.336)"><g class="b" transform="translate(0.674 -39.336)"><path class="a" d="M-4.326-44.336H25.885v30.216H-4.326Z" transform="translate(1.221 41.231)"/></g></g></svg>