<svg xmlns="http://www.w3.org/2000/svg" xmlns:xlink="http://www.w3.org/1999/xlink" width="44.027" height="44" viewBox="0 0 44.027 44"><defs><style>.a{fill:#fc0;}.b{fill:#fff;}.c{clip-path:url(#a);}.d{clip-path:url(#b);}</style><clipPath id="a"><path class="a" d="M22.028,0h0A22,22,0,0,1,0-21.974,22,22,0,0,1,15.566-43.037h0A22.606,22.606,0,0,1,22.056-44h0A22,22,0,0,1,42.323-30.552h0A21.313,21.313,0,0,1,44.028-22h0a22,22,0,0,1-19.8,22h-2.2Zm0-39.9h0A17.9,17.9,0,0,0,4.085-22.041,17.9,17.9,0,0,0,21.946-4.1,17.9,17.9,0,0,0,38.528-15.152h0a17.628,17.628,0,0,0,1.4-6.93h0A17.875,17.875,0,0,0,23.788-39.9c-.577.028-1.155,0-1.76,0ZM16.748-10.7h0a2.035,2.035,0,0,1-2.035-2.035,2.035,2.035,0,0,1,2.035-2.035h6.627a4.593,4.593,0,0,0,4.593-4.593,4.593,4.593,0,0,0-4.593-4.593H19.031l1.815,1.815h0a2.035,2.035,0,0,1,.577,1.458h0a1.98,1.98,0,0,1-.577,1.43h0a2.118,2.118,0,0,1-1.458.6h0a2.062,2.062,0,0,1-1.458-.6l-5.28-5.308-.193-.192-.193-.275V-26.95l.193-.3.193-.193,5.28-5.308h0a2.2,2.2,0,0,1,1.43-.577h0a2.062,2.062,0,0,1,1.458.6h0a2.035,2.035,0,0,1,0,2.75L19-28.16h4.345A8.69,8.69,0,0,1,31.536-19a8.69,8.69,0,0,1-8.188,8.188Z" transform="translate(-0.002 44)"/></clipPath><clipPath id="b"><path class="b" d="M15.733-13.267a15.011,15.011,0,0,1-15-15,15.011,15.011,0,0,1,15-15,15.011,15.011,0,0,1,15,15,14.354,14.354,0,0,1-.388,3.3,1.07,1.07,0,0,1-1.358.841,1.07,1.07,0,0,1-.841-1.358,13.589,13.589,0,0,0,.323-2.78A12.693,12.693,0,0,0,15.8-40.939,12.748,12.748,0,0,0,3.061-28.267,12.693,12.693,0,0,0,15.733-15.594a13.136,13.136,0,0,0,3.556-.517,1.172,1.172,0,0,1,1.422.776,1.172,1.172,0,0,1-.776,1.422,13.268,13.268,0,0,1-4.2.647Zm6.918-7.177a1.343,1.343,0,0,1-.776-.323l-7.565-6.659a1.043,1.043,0,0,1-.388-.841v-8.017a1.159,1.159,0,0,1,1.164-1.164,1.159,1.159,0,0,1,1.164,1.164v7.5l7.112,6.336a1.2,1.2,0,0,1,.129,1.616,1.043,1.043,0,0,1-.841.388Zm1.875,2.522a1.922,1.922,0,0,0,.517,1.293,1.805,1.805,0,0,0,1.293.517,1.922,1.922,0,0,0,1.293-.517,1.805,1.805,0,0,0,.517-1.293,1.922,1.922,0,0,0-.517-1.293,1.805,1.805,0,0,0-1.293-.517,1.922,1.922,0,0,0-1.293.517A2.053,2.053,0,0,0,24.526-17.922Z" transform="translate(-0.733 43.267)"/></clipPath></defs><g transform="translate(-1545 -266)"><g transform="translate(1545 266)"><circle class="a" cx="22" cy="22" r="22"/><g transform="translate(0 0)"><g class="c"><path class="a" d="M-5-49H49.029V5H-5Z" transform="translate(-5.002 44)"/></g></g></g><g transform="translate(1551.267 316.267)"><g class="d" transform="translate(0.733 -43.267)"><path class="b" d="M-4.267-48.267H32.787v37.053H-4.267Z" transform="translate(0.74 44.74)"/></g></g></g></svg>