<svg xmlns="http://www.w3.org/2000/svg" xmlns:xlink="http://www.w3.org/1999/xlink" width="225" height="164" viewBox="0 0 225 164"><defs><style>.a{fill:#00a088;}.b{clip-path:url(#a);}.c{clip-path:url(#b);}.d{clip-path:url(#c);}.e{fill:#d80643;font-size:24px;font-family:EthnocentricRg-Bold, Ethnocentric;font-weight:700;}.f{font-size:16px;font-family:PingFangSC-Regular, PingFang SC;letter-spacing:1.1em;}</style><clipPath id="a"><path class="a" d="M71.611,29.167V-20.278h0A14.833,14.833,0,0,0,56.778-35.111H7.333A9.889,9.889,0,0,1,17.222-45H71.611A9.889,9.889,0,0,1,81.5-35.111h0V19.278h0a9.889,9.889,0,0,1-9.889,9.889Z" transform="translate(-7.333 45)"/></clipPath><clipPath id="b"><path class="a" d="M-205,1081.862H761.863V-63H-205Z" transform="translate(205 63)"/></clipPath><clipPath id="c"><path class="a" d="M31.808,3.634,25.281-2.892h0a3.708,3.708,0,0,0-5.244-.089,3.708,3.708,0,0,0-.089,5.244q.045.046.091.091L28.782,11.1h0a3.708,3.708,0,0,0,5.622.43L53.632-7.708h0a3.708,3.708,0,0,0-.248-5.239,3.708,3.708,0,0,0-4.993,0L31.808,3.639ZM9.889-37.667H64.278a9.889,9.889,0,0,1,9.889,9.889V26.611h0A9.889,9.889,0,0,1,64.278,36.5H9.889A9.889,9.889,0,0,1,0,26.611H0V-27.778H0a9.889,9.889,0,0,1,9.889-9.889Z" transform="translate(0 37.667)"/></clipPath></defs><g transform="translate(17 -268)"><g transform="translate(51 313)"><g class="b" transform="translate(14.833 -45)"><g class="c" transform="translate(-429.492 -36.409)"><path class="a" d="M2.333-50H96.727V44.394H2.333Z" transform="translate(417.045 76.295)"/></g></g><g class="d" transform="translate(0 -30.167)"><g class="c" transform="translate(-414.659 -51.242)"><path class="a" d="M-5-42.667H89.394V51.727H-5Z" transform="translate(409.545 83.795)"/></g></g></g><text class="e" transform="translate(-17 394)"><tspan x="0" y="0">assignment</tspan></text><text class="f" transform="translate(37 427)"><tspan x="0" y="0">任务系统</tspan></text></g></svg>