<?xml version="1.0" standalone="no"?><!DOCTYPE svg PUBLIC "-//W3C//DTD SVG 1.1//EN" "http://www.w3.org/Graphics/SVG/1.1/DTD/svg11.dtd"><svg t="1570526273771" class="icon" viewBox="0 0 1024 1024" version="1.1" xmlns="http://www.w3.org/2000/svg" p-id="2968" xmlns:xlink="http://www.w3.org/1999/xlink" width="200" height="200"><defs><style type="text/css"></style></defs><path d="M761.435695 541.053518c11.133052-21.123413 7.812344-47.858657-9.96352-65.650657a56.835724 56.835724 0 0 0-1.399933-1.347802L302.104824 26.087486c-21.900722-21.900878-57.418473-21.900878-79.299025 0-21.900722 21.900722-21.900722 57.389304 0 79.249532l409.798749 409.807438-408.627666 408.636819c-21.850143 21.860228-21.850143 57.287215 0 79.126807 21.839903 21.860228 57.266424 21.860228 79.116568 0L750.145008 555.876848a57.245789 57.245789 0 0 0 1.251142-1.20894c4.1216-4.117876 7.467908-8.716412 10.039545-13.61439z" p-id="2969" fill="#ffffff"></path></svg>