<svg xmlns="http://www.w3.org/2000/svg" xmlns:xlink="http://www.w3.org/1999/xlink" width="36" height="36" viewBox="0 0 36 36"><defs><style>.a{fill:#006858;}.b{fill:none;}.c{clip-path:url(#a);}.d{clip-path:url(#b);}.e{clip-path:url(#c);}.f{clip-path:url(#d);}</style><clipPath id="a"><rect class="b" width="36" height="36"/></clipPath><clipPath id="b"><path class="a" d="M25.375-39.825h-4v-.8a.945.945,0,0,0-1-1,.945.945,0,0,0-1,1v.8h-7.8v-.8a.945.945,0,0,0-1-1,.945.945,0,0,0-1,1v.8h-4.2a4.951,4.951,0,0,0-5,5v18.2a4.951,4.951,0,0,0,5,5h20a4.951,4.951,0,0,0,5-5v-18.2A5.08,5.08,0,0,0,25.375-39.825Zm3,23.2a3.076,3.076,0,0,1-3,3h-20a3.076,3.076,0,0,1-3-3v-18.2a3.076,3.076,0,0,1,3-3h4.2v2.8a.945.945,0,0,0,1,1,.945.945,0,0,0,1-1v-2.8h7.8v2.8a.945.945,0,0,0,1,1,.945.945,0,0,0,1-1v-2.8h4a3.076,3.076,0,0,1,3,3Z" transform="translate(-0.375 41.625)"/></clipPath><clipPath id="c"><path class="a" d="M-27,328.636H320.636V-83H-27Z" transform="translate(27 83)"/></clipPath><clipPath id="d"><path class="a" d="M11.5-24.85H7.7a.945.945,0,0,0-1,1,.945.945,0,0,0,1,1h3.8a.945.945,0,0,0,1-1A.945.945,0,0,0,11.5-24.85Zm7.4,0H15.3a.945.945,0,0,0-1,1,.945.945,0,0,0,1,1h3.8a.945.945,0,0,0,1-1A1.12,1.12,0,0,0,18.9-24.85Zm7.6,0H22.7a.945.945,0,0,0-1,1,.945.945,0,0,0,1,1h3.8a.945.945,0,0,0,1-1A1.071,1.071,0,0,0,26.5-24.85Zm-7.6,7H15.3a.945.945,0,0,0-1,1,.945.945,0,0,0,1,1h3.8a.945.945,0,0,0,1-1A1.12,1.12,0,0,0,18.9-17.85Zm-7.4,0H7.7a.945.945,0,0,0-1,1,.945.945,0,0,0,1,1h3.8a.945.945,0,0,0,1-1A.945.945,0,0,0,11.5-17.85Zm15,0H22.7a.945.945,0,0,0-1,1,.945.945,0,0,0,1,1h3.8a.945.945,0,0,0,1-1A1.071,1.071,0,0,0,26.5-17.85Z" transform="translate(-6.7 24.85)"/></clipPath></defs><g class="c"><rect class="b" width="36" height="36"/><g transform="translate(3 3)"><g class="d"><g class="e" transform="translate(-19.909 -30.091)"><path class="a" d="M-4.625-46.625H32.648V-9.352H-4.625Z" transform="translate(20.898 73.08)"/></g></g><g class="f" transform="translate(4.6 12.2)"><g class="e" transform="translate(-24.509 -42.291)"><path class="a" d="M1.7-29.85H29.773v16.273H1.7Z" transform="translate(19.173 68.504)"/></g></g></g></g></svg>