<svg xmlns="http://www.w3.org/2000/svg" xmlns:xlink="http://www.w3.org/1999/xlink" width="94" height="94" viewBox="0 0 94 94"><defs><style>.a{fill:#666;}.b{fill:none;}.c{clip-path:url(#a);}.d{fill:#fff;}.e{clip-path:url(#d);}.f{clip-path:url(#e);}.g{filter:url(#b);}</style><clipPath id="a"><rect class="b" width="94" height="94"/></clipPath><filter id="b" x="0" y="0" width="94" height="94" filterUnits="userSpaceOnUse"><feOffset dy="3" input="SourceAlpha"/><feGaussianBlur stdDeviation="3" result="c"/><feFlood flood-opacity="0.161"/><feComposite operator="in" in2="c"/><feComposite in="SourceGraphic"/></filter><clipPath id="d"><path class="a" d="M29.656-40.687l.9-.675h0a.289.289,0,0,1,.4.057.289.289,0,0,1,.058.157l.3,5.272h0a.289.289,0,0,1-.272.305.289.289,0,0,1-.112-.016l-4.983-1.746h0a.289.289,0,0,1-.177-.369.289.289,0,0,1,.1-.134L27.3-38.91A17.721,17.721,0,0,0,18.5-41.357,15.907,15.907,0,0,0,2.643-25.5,15.907,15.907,0,0,0,18.5-9.636a1.249,1.249,0,0,1,1.322,1.321A1.249,1.249,0,0,1,18.5-6.993,18.389,18.389,0,0,1,0-25.5,18.389,18.389,0,0,1,18.5-44a23.731,23.731,0,0,1,11.153,3.313ZM24.319-19.946a1.394,1.394,0,0,1,.528,1.85,1.233,1.233,0,0,1-1.85.264l-9.252-5.287s-.264,0-.528-.528v-11.1a1.249,1.249,0,0,1,1.322-1.322,1.249,1.249,0,0,1,1.322,1.322v9.78l8.458,5.022ZM28.6-11.117h0A1.446,1.446,0,0,1,28.1-9.133L25.625-7.644h0a1.446,1.446,0,0,1-1.974-.53,1.446,1.446,0,0,1,.485-1.948l2.478-1.49h0a1.446,1.446,0,0,1,1.983.495Zm5.7-6.45h0a1.446,1.446,0,0,1,.39,2.006l-1.617,2.4h0a1.446,1.446,0,0,1-2,.4,1.446,1.446,0,0,1-.4-2l.012-.018,1.616-2.4h0a1.446,1.446,0,0,1,2.007-.391h0Zm1.376-8.588h0a1.446,1.446,0,0,1,1.341,1.543h0l-.2,2.884h0a1.446,1.446,0,0,1-1.543,1.341A1.446,1.446,0,0,1,33.93-21.93l.2-2.884h0a1.446,1.446,0,0,1,1.543-1.341h0Zm-2.352-8.32h0a1.446,1.446,0,0,1,1.9.766l1.13,2.662h0a1.446,1.446,0,0,1-.766,1.9,1.446,1.446,0,0,1-1.9-.766l-1.13-2.661h0a1.446,1.446,0,0,1,.766-1.9Z" transform="translate(0 44)"/></clipPath><clipPath id="e"><path class="a" d="M-47,212.019H301.2V-407H-47Z" transform="translate(47 407)"/></clipPath></defs><g class="c"><g class="g" transform="matrix(1, 0, 0, 1, 0, 0)"><path class="d" d="M38,0A38,38,0,1,1,0,38,38,38,0,0,1,38,0Z" transform="translate(9 6)"/></g><g transform="translate(28 69)"><g class="e" transform="translate(0 -44)"><g class="f" transform="translate(-39.53 -305.304)"><path class="a" d="M-5-49H40.431V-3.583H-5Z" transform="translate(40.324 350.099)"/></g></g></g></g></svg>