<svg xmlns="http://www.w3.org/2000/svg" xmlns:xlink="http://www.w3.org/1999/xlink" width="94" height="94" viewBox="0 0 94 94"><defs><style>.a{fill:#fff;}.b{fill:none;}.c{clip-path:url(#a);}.d{fill:#00a088;}.e{clip-path:url(#d);}.f{clip-path:url(#e);}.g{filter:url(#b);}</style><clipPath id="a"><rect class="b" width="94" height="94"/></clipPath><filter id="b" x="0" y="0" width="94" height="94" filterUnits="userSpaceOnUse"><feOffset dy="3" input="SourceAlpha"/><feGaussianBlur stdDeviation="3" result="c"/><feFlood flood-opacity="0.161"/><feComposite operator="in" in2="c"/><feComposite in="SourceGraphic"/></filter><clipPath id="d"><path class="a" d="M2.451-30.31H4.458v1h0A2.007,2.007,0,0,0,6.464-27.3a2.007,2.007,0,0,0,2.007-2.006v-1H30.545a2.007,2.007,0,0,0,2.007-2.006,2.007,2.007,0,0,0-2.006-2.007H8.471v-1h0a2.008,2.008,0,0,0-2.008-2.008,2.008,2.008,0,0,0-2.008,2.008v1h-2A2.007,2.007,0,0,0,.444-32.317,2.007,2.007,0,0,0,2.45-30.31h0ZM30.545-14.258H8.471v-1h0a2.007,2.007,0,0,0-2.007-2.007,2.007,2.007,0,0,0-2.007,2.007h0v1H2.451A2.008,2.008,0,0,0,.443-12.25a2.008,2.008,0,0,0,2.008,2.008H4.458v1h0A2.007,2.007,0,0,0,6.464-7.232,2.007,2.007,0,0,0,8.471-9.239h0v-1H30.545a2.008,2.008,0,0,0,2.008-2.008,2.008,2.008,0,0,0-2.008-2.008Zm0-10.032H28.539v-1h0A2.008,2.008,0,0,0,26.531-27.3a2.008,2.008,0,0,0-2.008,2.008v1H2.451A2.007,2.007,0,0,0,.444-22.283a2.007,2.007,0,0,0,2.007,2.007H24.525v1h0a2.008,2.008,0,0,0,2.008,2.008,2.008,2.008,0,0,0,2.008-2.008v-1h2.007a2.007,2.007,0,0,0,2.006-2.008,2.007,2.007,0,0,0-2.008-2.006Z" transform="translate(-0.443 37.335)"/></clipPath><clipPath id="e"><path class="a" d="M-47,71.213H292.87V-533H-47Z" transform="translate(47 533)"/></clipPath></defs><g class="c"><g transform="translate(-473 -128)"><g class="g" transform="matrix(1, 0, 0, 1, 473, 128)"><circle class="d" cx="38" cy="38" r="38" transform="translate(9 6)"/></g><g transform="translate(503.557 194.335)"><g class="e" transform="translate(0.443 -37.335)"><g class="f" transform="translate(-38.948 -406.912)"><path class="a" d="M-4.557-42.335H35.763V-4.023H-4.557Z" transform="translate(39.4 445.142)"/></g></g></g></g></g></svg>