<svg xmlns="http://www.w3.org/2000/svg" xmlns:xlink="http://www.w3.org/1999/xlink" width="94" height="94" viewBox="0 0 94 94"><defs><style>.a{fill:none;}.b{fill:#666;}.c{clip-path:url(#a);}.d{fill:#fff;}.e{clip-path:url(#e);}.f{clip-path:url(#f);}.g{filter:url(#c);}</style><clipPath id="a"><rect class="a" width="94" height="94"/></clipPath><filter id="c" x="0" y="0" width="94" height="94" filterUnits="userSpaceOnUse"><feOffset dy="3" input="SourceAlpha"/><feGaussianBlur stdDeviation="3" result="d"/><feFlood flood-opacity="0.161"/><feComposite operator="in" in2="d"/><feComposite in="SourceGraphic"/></filter><clipPath id="e"><path class="b" d="M26.932-30.55c-2.706.22-2.068,2.794-1.98,3.1h0A12.5,12.5,0,0,1,29.22-17.79h0A12.232,12.232,0,0,1,17.143-5.4h-.265A12.32,12.32,0,0,1,4.534-17.7a12.32,12.32,0,0,1,7.042-11.156c0-.418.638-3.212-2.31-3.08h0A16.434,16.434,0,0,0,2.25-9.779,16.434,16.434,0,0,0,16.7-.916h0a16.72,16.72,0,0,0,16.7-16.5h0A16.456,16.456,0,0,0,26.932-30.55ZM18-16.316h0a2.618,2.618,0,0,0,2.2-2.354V-33.718h0a2.2,2.2,0,0,0-1.969-2.409A2.2,2.2,0,0,0,18-36.138a2.213,2.213,0,0,0-2.2,2.42V-18.67h0A2.75,2.75,0,0,0,18-16.316Z"/></clipPath><clipPath id="f"><path class="b" d="M-48,270H366V-466H-48Z"/></clipPath></defs><g class="c"><g class="c"><g class="g" transform="matrix(1, 0, 0, 1, 0, 0)"><path class="d" d="M38,0A38,38,0,1,1,0,38,38,38,0,0,1,38,0Z" transform="translate(9 6)"/></g></g><g transform="translate(29.601 62.138)"><g class="e"><g class="f"><path class="b" d="M-4.6-41.138h43V4.084h-43Z"/></g></g></g></g></svg>