<svg xmlns="http://www.w3.org/2000/svg" xmlns:xlink="http://www.w3.org/1999/xlink" width="44" height="44" viewBox="0 0 44 44"><defs><style>.a{fill:#fff;}.b{fill:#fc0;}.c{clip-path:url(#a);}</style><clipPath id="a"><path class="a" d="M2.472-15.288A2.222,2.222,0,0,1,.225-17.535v-3.452a2.222,2.222,0,0,1,2.247-2.247H4.115l1.753-1.425c1.1-.877,1.041-1.205.658-1.808a2.32,2.32,0,0,0-.274-.384c-.055-.055-.384-.493-.384-.493-.164-.164-.274-.384-.438-.548a5.551,5.551,0,0,1-1.315-3.616,6.111,6.111,0,0,1,6.247-5.918h.164a6.1,6.1,0,0,1,6.082,5.863,5.6,5.6,0,0,1-.822,2.959l-.548.767-.11.11a6.139,6.139,0,0,0-.877,1.37c-.219.493-.164.877.438,1.534.548.548,1.151,1.041,1.753,1.589h1.534a2.222,2.222,0,0,1,2.247,2.247v3.452a2.222,2.222,0,0,1-2.247,2.247H2.472Zm0-5.918c-.055,0-.11,0-.11.055-.055.055-.055.055-.055.11v3.452a.145.145,0,0,0,.164.164H18.088a.145.145,0,0,0,.164-.164v-3.452c0-.055,0-.11-.055-.11-.055-.055-.055-.055-.11-.055Zm10.959-2.082-.164-.164a3.217,3.217,0,0,1-.877-3.726,3.845,3.845,0,0,1,.548-1.041c.11-.164.164-.274.329-.493a3.716,3.716,0,0,1,.329-.493l.493-.712a3.449,3.449,0,0,0,.493-1.808,4.036,4.036,0,0,0-4.055-3.781h-.11a4,4,0,0,0-4.164,3.836,3.591,3.591,0,0,0,.822,2.3l.11.11a3.846,3.846,0,0,1,.329.493,3.864,3.864,0,0,1,.384.493c.164.219.274.384.384.548.986,1.589.712,3.014-.877,4.384h6.027Z" transform="translate(-0.225 37.425)"/></clipPath></defs><circle class="b" cx="22" cy="22" r="22"/><g transform="translate(12 8)"><g class="c"><path class="a" d="M-4.775-42.425H21.2V-14.31H-4.775Z" transform="translate(1.786 39.436)"/></g></g></svg>