<svg xmlns="http://www.w3.org/2000/svg" xmlns:xlink="http://www.w3.org/1999/xlink" width="94" height="94" viewBox="0 0 94 94"><defs><style>.a{fill:#666;}.b{fill:none;}.c{clip-path:url(#a);}.d{fill:#fff;}.e{clip-path:url(#d);}.f{clip-path:url(#e);}.g{filter:url(#b);}</style><clipPath id="a"><rect class="b" width="94" height="94"/></clipPath><filter id="b" x="0" y="0" width="94" height="94" filterUnits="userSpaceOnUse"><feOffset dy="3" input="SourceAlpha"/><feGaussianBlur stdDeviation="3" result="c"/><feFlood flood-opacity="0.161"/><feComposite operator="in" in2="c"/><feComposite in="SourceGraphic"/></filter><clipPath id="d"><path class="a" d="M18.5-7A18.52,18.52,0,0,1,0-25.5,18.52,18.52,0,0,1,18.5-44,18.521,18.521,0,0,1,37-25.5,18.521,18.521,0,0,1,18.5-7Zm0-34.688A16.2,16.2,0,0,0,2.313-25.5,16.2,16.2,0,0,0,18.5-9.313,16.2,16.2,0,0,0,34.688-25.5,16.2,16.2,0,0,0,18.5-41.688ZM25.1-18.9h0a1.158,1.158,0,0,1-1.636,0L18.5-23.865,13.537-18.9h0a1.158,1.158,0,0,1-1.636-.061,1.158,1.158,0,0,1,0-1.575L16.865-25.5,11.9-30.463h0a1.157,1.157,0,0,1,0-1.636,1.157,1.157,0,0,1,1.636,0L18.5-27.135,23.463-32.1h0a1.157,1.157,0,0,1,1.636,0,1.157,1.157,0,0,1,0,1.636L20.135-25.5,25.1-20.537h0a1.159,1.159,0,0,1,0,1.636Z" transform="translate(0 44)"/></clipPath><clipPath id="e"><path class="a" d="M-250,178.908H98.136V-440H-250Z" transform="translate(250 440)"/></clipPath></defs><g class="c"><g class="g" transform="matrix(1, 0, 0, 1, 0, 0)"><circle class="d" cx="38" cy="38" r="38" transform="translate(9 6)"/></g><g transform="translate(29 70)"><g class="e" transform="translate(0 -44)"><g class="f" transform="translate(-210.227 -333)"><path class="a" d="M-5-49H40.409V-3.591H-5Z" transform="translate(211.022 377.795)"/></g></g></g></g></svg>